# xmcd
#
# Track frame offsets:
#	150
#	11506
#	20641
#	36734
#	46981
#	63613
#	78669
#	91284
#	103314
#	115624
#	131715
#	140960
#	150370
#	167610
#	183540
#	195829
#	205506
#	218525
#	244299
#	257617
#	266802
#	276817
#	287830
#	305814
#	320026
#	342691
#
# Disc length: 4763
#
# Revision: 2
# Processed by: cddbd v1.5.1PL0 Copyright (c) Steve Scherf et al.
# Submitted via: audiograbber 1.80
# Normalized: r1:DSETVAR1
#
DISCID=9112991a
DTITLE=Various Artist - The Vee Jay Story [CD4]
DYEAR=1900
DGENRE=
TTITLE0=Little Richard - Whole Lotta Shakin' Goin' On
TTITLE1=J.B. Lenoir - Do What I Say O
TTITLE2=John Lee Hooker - My First Wife Left Me
TTITLE3=The Magnificents - Let's Do The Cha-Cha
TTITLE4=Wynton Kelly - Surrey With The Fringe On Top
TTITLE5=Eddie Harris - Little Girl Blue
TTITLE6=The Staple Singers - Will The Circle Be Unbroken?
TTITLE7=The Swan Silvertones - Nobody But You
TTITLE8=Dee Clark - Shook Up Over You
TTITLE9=Yusef Lateef - Hazing
TTITLE10=Christine Kittrell - Mr. Big Wheel
TTITLE11=The Staple Singers - (This Could Be) The Last Time
TTITLE12=Eddie Harris - Willow Weep For Me
TTITLE13=Lee Morgan - Just In Time
TTITLE14=Gene Chandler - Man's Temptation
TTITLE15=The Pyramids - Shakin' It
TTITLE16=Jimmy Reed - Big Boss Man
TTITLE17=The Young Lions - Seeds Of Sin
TTITLE18=Wayne Shorter - All Or Nothing At All
TTITLE19=Gene Chandler - Tear For Tear
TTITLE20=Betty Everett - Getting Mighty Crowded
TTITLE21=Little Richard - My Wheels They Are Slippin' All The Way
TTITLE22=The Caravans - What Will Tomorrow Bring
TTITLE23=Eddie Harris - Laura
TTITLE24=Eddie Harris - Lolita Marie
TTITLE25=Victorio Valdez - La Boda De Luis Alonso
EXTD=
EXTT0=
EXTT1=
EXTT2=
EXTT3=
EXTT4=
EXTT5=
EXTT6=
EXTT7=
EXTT8=
EXTT9=
EXTT10=
EXTT11=
EXTT12=
EXTT13=
EXTT14=
EXTT15=
EXTT16=
EXTT17=
EXTT18=
EXTT19=
EXTT20=
EXTT21=
EXTT22=
EXTT23=
EXTT24=
EXTT25=
PLAYORDER=
